<?xml version="1.0" encoding="utf-8"?>
<!-- Generator: Adobe Illustrator 27.5.0, SVG Export Plug-In . SVG Version: 6.00 Build 0)  -->
<svg version="1.1" id="Paths" xmlns="http://www.w3.org/2000/svg" xmlns:xlink="http://www.w3.org/1999/xlink" x="0px" y="0px"
	 viewBox="0 0 1900 1200" style="enable-background:new 0 0 1900 1200;" xml:space="preserve">
<style type="text/css">
	.st0{fill:none;stroke:#000000;stroke-miterlimit:10;}
</style>
<path class="st0" d="M1249,407c6,2.81,10.77,5.28,14,7c6.17,3.29,7.9,4.49,12,6c6.49,2.39,11.69,2.89,13,3c4.97,0.42,8.53-0.13,14-1
	c8.62-1.38,15.42-3.58,29-8c1.7-0.55,4.47-1.47,8-3c1.23-0.53,4.15-1.84,8-4c1.19-0.67,8.23-4.67,13-10c0.72-0.8,1.82-2.11,2-4
	c0.2-2.05-0.79-3.67-1-4c-0.38-0.59-0.91-1.21-2-2c-2.05-1.48-3.27-1.55-7-3c-2.6-1.01-2.82-1.3-5-2c-1.29-0.42-2.45-0.79-4-1
	c-0.96-0.13-2.9-0.4-5,0c-2.6,0.5-4.22,1.79-7,4c-2.5,1.99-3.99,3.77-5,5c-1.83,2.23-2.76,3.37-3,5c-0.24,1.58,0.2,2.79,1,5
	c0.96,2.66,1.51,4.19,3,5c1.56,0.86,3.25,0.44,5,0c3.06-0.76,5.1-2.43,7-4c1.82-1.5,2.91-2.39,4-4c1.12-1.65,1.43-2.86,3-4
	c0.99-0.72,2.54-1.46,3-1c0.44,0.45,0.03,2.07-1,3c-1.98,1.79-4.72-0.38-8,1c-0.63,0.27-1.76,1.51-4,4c-4.19,4.66-5.22,6.27-6,8
	c-0.74,1.64-1.18,2.66-1,4c0.36,2.62,2.82,4.25,4,5c3.86,2.47,6.13,1.52,14,3c4.17,0.78,6.99,1.7,11,3c4.19,1.36,6.3,2.06,7,3
	c1.51,2.04,0.77,4.2,1,15c0.03,1.2,0.07,2.64,1,4c1.59,2.33,4.64,2.79,6,3c0.85,0.13,1.84,0.2,9-1c3.45-0.58,4.66-0.83,7-1
	c1.69-0.12,2.79-0.08,5,0c4.19,0.15,4.77,0.55,5,1c0.46,0.92-0.47,2.25-1,3c-1.3,1.86-3.1,2.67-4,3"/>
<path class="st0" d="M424.5,139.5c1.42,0.6,3.47,1.36,6,2c2.55,0.64,4,1.01,6,1c3.42-0.02,5.97-1.12,8-2c2.1-0.91,3.53-1.53,5-3
	c1.83-1.83,2.58-3.84,3-5c0.7-1.94,0.82-3.48,1-6c0.13-1.78,0.12-3.43,0-5c-0.19-2.52-0.29-3.78-1-5c-0.39-0.67-1.26-1.45-3-3
	c-1.85-1.65-2.42-1.9-3-2c-1.19-0.2-2.74,0.17-3,1c-0.06,0.18-0.15,0.68,1,2c0.72,0.82,1.87,2.15,4,3c3.55,1.42,6.88,0.37,8,0
	c2.33-0.77,3.81-2.01,5-3c1.51-1.26,2.67-2.84,5-6c2.64-3.58,2.88-4.41,3-5c0.46-2.26-0.53-2.73,0-5c0.36-1.54,1.24-2.69,3-5
	c1.28-1.68,1.94-2.53,3-3c0.36-0.16,1.24-0.44,3-1c1.34-0.43,1.85-0.57,2-1c0.15-0.43-0.12-0.95-1-2c-1.51-1.81-2.92-2.94-3-3
	c-1.68-1.33-2.93-2.22-4-3c-2.34-1.7-3.51-2.55-4-3c-2.1-1.92-2.01-2.67-5-6c-1.33-1.48-2-2.22-3-3c-2.29-1.78-4.49-2.51-6-3
	c-2.25-0.73-3.87-1.25-6-1c-1.18,0.14-1.17,0.36-4,1c-2.74,0.62-3.99,0.7-4,1c-0.01,0.48,3.14-0.01,6,2c1.51,1.06,3.09,2.92,4,4
	c1.05,1.24,1.28,1.68,2,2c1.47,0.65,3.68,0.21,5-1c2.5-2.3,0.09-5.84,2-13c0.53-2,1.23-3.62,2-5c1.21-2.16,2.85-5.1,6-6
	c1.63-0.47,3.1-0.23,4,0"/>
<path id="_x37_0" class="st0" d="M1597,990c-0.9,0.21-3.18,0.89-5,3c-0.29,0.33-1.46,1.75-2,4c-0.52,2.18-0.18,4.02,1,8
	c1.13,3.82,1.7,5.1,3,9c1.94,5.83,1.78,6.28,3,9c1.06,2.36,1.43,2.57,4,7c2.82,4.86,5.34,9.73,6,11c2.85,5.5,3.56,7.33,6,9
	c0.36,0.25,0.98,0.64,5,2c9.37,3.17,10.92,2.71,14,5c1.91,1.42,2.12,2.19,4,3c2.33,1.01,3.57,0.51,7,1c1.1,0.16,3.98,0.59,7,2
	c1.19,0.55,2.35,1.23,7,5c3.95,3.2,3.81,3.27,6,5c4.49,3.54,5.21,3.34,10,7c1.92,1.46,4.24,3.25,7,6c1.61,1.61,3.76,3.77,6,7
	c1.28,1.85,2.2,3.59,4,7c1.68,3.18,3.01,5.92,4,8"/>
<path id="_x36_9" class="st0" d="M1022.5,286.5c-1.06-1.07-2.71-2.58-5-4c-2.64-1.64-4.91-3.06-8-3c-2.77,0.05-4.78,1.26-6,2
	c-1.23,0.74-4.58,2.83-6,7c-0.37,1.09-1.39,4.08,0,7c0.34,0.71,1.21,2.53,3,3c2.28,0.59,4.4-1.43,5-2c2.37-2.26,2.8-5.35,3-7
	c0.53-4.28-1.09-5.13,0-8c0.74-1.94,2.13-3.24,4-5c0.86-0.8,2.09-1.94,4-3c1.2-0.67,3.24-1.79,6-2c1.49-0.11,3.02,0.26,6,1
	c6.06,1.51,6.75,2.54,7,3c0.74,1.37,0.31,2.9,0,4c-0.49,1.76-1.65,4.06-8,9c-3.32,2.58-3.04,1.98-7,5c-4.23,3.23-4.8,4.11-7,5
	c-2.13,0.87-4.09,0.91-8,1c-1.46,0.03-6.13,0.08-12-1c-4.13-0.76-6.2-1.14-8-2c-1.33-0.64-1.96-1.12-3-1c-2.21,0.27-2.8,2.91-5,5
	c-2.08,1.98-4.47,2.39-8,3c-2.74,0.47-9.72,1.68-15-2c-1.52-1.06-2.75-2.42-4-2c-1.13,0.38-1.52,1.97-2,4c-1,4.27-0.07,5.6-1,10
	c-0.28,1.35-0.41,1.42-1,4c-0.56,2.46-0.86,4.23-1,5c-0.96,5.34-2.71,10.22-3,11c-1.67,4.59-1.9,3.51-4,9c-1.41,3.69-1.57,4.88-3,6
	c-1.89,1.48-2.95,0.48-7,2c-2.32,0.87-2.51,1.4-6,3c-2.1,0.96-3.86,1.61-5,2"/>
<path id="_x36_8" class="st0" d="M29.5,584.5c3.34,5.08,7.07,7.15,9,8c2.34,1.04,4.89,1.56,7,2c3.37,0.7,3.54,0.37,7,1
	c3.11,0.56,6.39,1.16,10,3c2.09,1.07,1.79,1.27,5,3c3.79,2.04,3.93,1.6,6,3c2.48,1.68,3.21,2.93,5,3c0.37,0.01,1.17-0.02,3-1
	c3.25-1.75,5.26-4.09,6-5c0.43-0.53,2.16-2.71,4-7c0.46-1.08,1.65-3.96,3-10c1.36-6.09,2.12-9.12,2-12c-0.13-3.12-0.76-4.82,0-8
	c0.5-2.08,1.33-3.7,2-5c1.19-2.31,2.31-3.8,4-6c3.27-4.28,5.34-6.92,9-9c0.42-0.24,1.03-0.82,2-1c2.19-0.41,4.18,1.23,5,2"/>
<path id="_x36_7" class="st0" d="M289.5,426.5c0.54-0.38,1.32-1.01,2-2c0.66-0.95,1.02-1.39,1-2c-0.05-1.27-1.63-2.2-3-3
	c-0.86-0.5-0.9-0.39-2-1c-1.42-0.79-1.93-1.29-3-2c-0.55-0.36-2.02-1.3-4-2c-2.18-0.77-3.99-0.92-5-1c-0.8-0.06-1.75-0.13-3,0
	c-1.17,0.12-2.52,0.26-4,1c-2.47,1.24-3.64,3.32-4,4c-0.69,1.29-1.4,2.6-1,4c0.17,0.58,0.48,1.02,3,3c2.25,1.77,4,3,4,3
	c3.02,2.13,4.11,2.75,4,3c-0.15,0.34-2.22-0.56-6-1c-1.9-0.22-2.87-0.33-4,0c-2.31,0.67-3.62,2.47-4,3c-0.8,1.12-1.2,2.75-2,6
	c-0.33,1.33-0.76,2.65-1,4c-0.24,1.38-0.28,2.24-1,3c-0.72,0.76-1.67,0.94-2,1c-1.3,0.24-2.31-0.22-4-1c-1.59-0.73-2.39-1.1-3-2
	c-0.59-0.87-0.36-1.28-1-2c-0.86-0.96-2.41-1.53-3-1c-0.47,0.42-0.22,1.46,0,2c0.19,0.45,0.54,0.99,2,2c1.92,1.32,2.54,1.23,3,2
	c0.29,0.47,0.52,1.28,0,3c-0.95,3.15-3.26,5.49-5,7c-0.31,0.27-5,4.28-10,6c-1.99,0.68-3.28,0.75-5,2c-0.63,0.46-1.15,0.95-2,1
	c-1.22,0.07-1.73-0.84-3-1c-0.49-0.06-1.29-0.04-3,1c-1.56,0.95-3.55,2.54-6,6c-0.83,1.17-1.92,2.85-3,5"/>
<path id="_x36_6" class="st0" d="M415.5,713.5c0.17-0.98,0.46-2.38,1-4c0.82-2.46,1.88-4.43,5-9c5.68-8.33,5.85-7.2,7-10
	c0.84-2.06,1.22-3.82,3-5c0.37-0.24,1.11-0.68,5-1c2.92-0.24,5.5-0.44,9,0c1.46,0.18,3,0.38,5,1c2.98,0.93,6.35,1.97,8,5
	c0.9,1.64,0.97,3.28,1,4c0.08,1.88-0.39,3.26-1,5c-1.17,3.31-1.68,4.99-3,6c-1.46,1.11-3.8,1.82-6,1c-2.69-1-3.57-3.7-4-5
	c-0.34-1.05-1.02-3.12,0-5c0.59-1.09,1.53-1.7,2-2c0.68-0.44,1.74-1.13,3-1c0.28,0.03,1.18,0.16,3,2c1.78,1.8,2.75,3.55,3,4
	c1.72,3.04,3.05,5.39,4,9c0.45,1.72,0.92,4.1,1,7"/>
<path id="_x36_5" class="st0" d="M674.5,546.5c-0.09-0.67-0.16-1.73,0-3c0.22-1.72,0.69-2.21,1-4c0.29-1.67,0.5-2.83,0-4
	c-0.7-1.64-2.39-2.34-4-3c-2.44-1.01-4.58-1.01-6-1c-3.29,0.02-5.22-0.15-6,1c-0.39,0.58-0.52,1.5,1,5c2.61,6.01,5.76,9.65,7,11
	c2.84,3.11,4.28,3.74,5,4c2,0.73,3.99,0.64,4,1c0.01,0.32-1.53,0.4-3,1c-2.32,0.94-3.4,2.71-5,5c-3.96,5.67-3.86,4.21-7,9
	c-1.94,2.95-2.69,4.61-5,7c-1.74,1.8-2.92,2.54-4,3c-2.17,0.93-4.39,0.99-5,1c-2.07,0.03-2.56-0.42-4,0c-0.5,0.15-1.95,0.59-3,2
	c-1.24,1.67-1.06,3.53-1,4"/>
<path id="_x36_4" class="st0" d="M1191.5,123.5c1.12,0.47,3.27,1.19,6,1c1.11-0.08,3.75-0.27,6-2c0.69-0.53,1.51-1.34,4-7
	c2.21-5.03,2.35-6.19,4-8c1.71-1.88,3.5-2.77,4-3c0.68-0.32,2.85-1.26,8-1c0.51,0.03,10.7,0.55,15,2c0.31,0.11,1.26,0.44,2,0
	c0.65-0.38,0.87-1.19,1-2c0.52-3.17-0.52-4.82,0-8c0.14-0.82,0.36-1.62,1-2c0.69-0.41,1.55-0.15,2,0c3.77,1.26,6.04,4.09,10,5
	c1.56,0.36,2.42,0.2,3,0c1.8-0.63,2.69-2.33,3-3"/>
<path id="_x36_3" class="st0" d="M1048.5,491.5c1.87-2.15,3.74-3.34,5-4c1.11-0.58,0.79-0.25,6-2c3.11-1.04,3.9-1.39,5-1
	c1.11,0.39,1.15,1.03,3,2c1.06,0.56,1.89,0.99,3,1c1.37,0.02,3.11-0.6,4-2c0.94-1.48,0.5-3.18,0-5c-0.6-2.19-1.17-2.37-3-6
	c-2.44-4.83-1.33-4.3-3-7c-0.58-0.94-1.29-1.92-1-3c0.26-0.97,1.19-1.52,2-2c0.54-0.32,2.08-1.23,4-1c0.35,0.04,0.92,0.15,4,2
	c2.43,1.47,2.9,1.9,4,2c1.16,0.11,2.73-0.18,3-1c0.22-0.67-0.5-1.45-1-2c-0.79-0.87-1.46-1.16-3-2c-2.97-1.62-3.06-1.96-4-2
	c-1.46-0.06-2.59,0.69-3,1c-2.27,1.73-2.02,4.78-2,5"/>
<path id="_x36_2" class="st0" d="M940.68,752.06c-0.59-0.52-1.43-1.36-2.18-2.56c-0.89-1.42-1.23-2.64-2-7c-1.05-5.96-1.03-7.23-1-8
	c0.08-1.92,0.16-3.36,1-5c1.15-2.23,2.96-3.36,4-4c3.38-2.06,6.77-2.02,9-2c2.34,0.03,5.53,0.06,9,2c0.94,0.52,5,2.93,7,8
	c0.46,1.16,1.43,3.71,1,7c-0.46,3.58-2.31,5.88-4,8c-1.77,2.21-3.5,4.37-5,4c-1.57-0.39-1.54-3.23-3-7c-1.42-3.69-3.37-5.94-6-9
	c-1.72-2-8.24-9.57-15-12c-0.6-0.22-2.01-0.68-3-2c-0.9-1.19-1.19-2.73-1-6c0.18-2.97,0.63-5.19,1-7c1.86-8.97,2.06-9.28,2-11
	c-0.09-2.66-0.6-2.35-1-7c-0.22-2.52-0.16-3.65-1-5c-0.72-1.15-1.82-1.78-4-3c-1.63-0.91-3.82-2.12-7-3c-1.35-0.37-3.44-0.85-6-1
	c-2.57-0.15-2.69,0.19-5,0c-3.51-0.29-3.72-1.12-6-1c-0.36,0.02-4.67,0.31-6,3c-0.78,1.58-0.22,3.32,0,4c1.67,5.24,2.44,10.73,4,16
	c0.85,2.87,2.79,9.66,2,18c-0.42,4.5-0.84,8.89-4,12c-1.11,1.09-2.43,1.9-4,4c-1.91,2.55-2.27,4.43-3,6c-2.24,4.84-6.82,4.28-21,12
	c-1.96,1.07-3.47,1.95-6,3c-1.32,0.55-4.19,1.68-10,3c-5.94,1.35-5.56,0.78-11,2c-6.58,1.48-7.77,2.47-11,2c-3.43-0.5-5.83-2.17-7-3
	c-1.02-0.73-5.88-4.19-7-10c-0.6-3.13,0.72-2.57,1-10c0.12-3.28-0.05-5.6,1-9c0.77-2.5,1.58-3.52,2-4c1.37-1.55,3.22-2.4,6-3
	c9.31-2.01,17,1,17,1c2.01,0.79,6.46,2.6,10,7c1.47,1.83,2.83,3.52,3,6c0.3,4.3-3.23,7.49-6,10c-1.95,1.77-3.86,3.45-6,3
	c-1.6-0.33-3.19-1.82-3-3c0.04-0.24,0.26-1.11,3-2c2.64-0.86,5.78-1.15,13,0c2.91,0.46,4.37,0.69,5,1c4.58,2.21,6.08,7.65,7,11
	c1.8,6.52,0.94,12.34,0,16"/>
<path id="_x36_1_00000166667779793184469220000006255260424625649819_" class="st0" d="M103.5,307.5c-0.27-0.77-0.73-2.43,0-4
	c0.18-0.38,0.75-1.47,4-3c3.39-1.6,6-2,6-2c14.64-2.51,27,0,27,0c4.87,0.99,8.11,2.21,10,3c3,1.25,2.71,1.53,6,3
	c5.74,2.55,7.79,2.31,12,5c1.08,0.69,2.79,1.88,4,4c0.53,0.92,1.29,2.3,1,4c-0.03,0.17-0.46,2.53-2,3c-1.57,0.48-4.29-2.28-5-3
	c-4.43-4.52-3.35-11.5-1-15c0.25-0.38,0.87-1.29,2-2c1.29-0.81,2.42-0.84,4-1c4.46-0.44,5.49-1.17,9-1c0.97,0.05,2.13,0.16,3,1
	c0.68,0.66,0.89,1.49,1,2c0.99,4.57,1.67,7.68,0,11c-1.2,2.39-2.96,3.59-5,5c-1.29,0.89-9.09,6.04-14,3c-0.96-0.6-1.49-1.31-2-2
	c-6.12-8.36-0.25-22.91,1-26c0.9-2.23,2-4,2-4c1.32-2.13,2.12-2.66,3-4c0.91-1.38,1.29-3.6,2-8c0.49-3.03,1.38-5.99,2-9
	c0.07-0.35,0.26-1.26,1-2c0.72-0.72,1.6-0.91,2-1c7.96-1.69,16,2,16,2c2.34,1.07,1.65,1.06,10,6c4.12,2.44,6.18,3.66,7,4
	c3.15,1.3,9.23,2.26,20-4"/>
<path id="_x35_9_00000149365114551446807680000003451239502321692851_" class="st0" d="M528.5,1034.5c-1.65-1-4.15-2.86-6-6
	c-0.71-1.2-1.85-3.2-2-6c-0.07-1.27-0.17-3.17,1-5c0.24-0.37,2.21-3.37,5-3c2.7,0.36,3.85,3.57,4,4c0.68,1.9,0.36,3.7,0,5
	c-2.36,8.52-11.71,14.57-17,18c-2.04,1.32-4.55,2.8-7,2c-0.19-0.06-2.62-0.89-3-3c-0.31-1.69,0.86-3.26,2-4c0.79-0.51,2.19-1.04,6,0
	c3,0.82,7.22,1.98,11,6c1.61,1.71,4.76,5.07,5,10c0.16,3.34-1.08,6.02-2,8c-1.27,2.74-2.81,4.59-4,6c-2.78,3.29-3.55,2.94-6,6
	c-2.14,2.67-1.55,2.93-4,6c-2.4,3.01-3.19,3.04-4,5c-0.75,1.82-0.2,2.1-1,6c-0.68,3.31-1.2,3.68-1,5c0.34,2.29,2.27,3.58,4,5
	c2.18,1.79,5.07,4.59,8,9"/>
<path id="_x35_8_00000047045006270603478480000009781624998908929465_" class="st0" d="M689.5,232.5c0.04-1.37,0.3-4.13,2-7
	c1.62-2.73,3.72-4.15,5-5c1.5-0.99,4.6-2.98,9-3c1.49-0.01,5.57-0.02,9,3c2.72,2.4,4.09,5.87,4,9c-0.03,1.11-0.11,3.92-2,5
	c-0.99,0.57-2.49,0.67-3,0c-0.89-1.15,1.43-4.24,2-5c2.03-2.71,4.49-4.22,6-5c2.56-1.32,5.74-2.96,9-2c3.17,0.93,2.75,3.23,6,4
	c3.51,0.83,7.82-0.93,8-1c1.68-0.7,2.3-1.34,3-1c1.22,0.58,0.6,3.12,1,7c0.4,3.85,1.27,3.85,2,8c0.57,3.23,1.15,6.55,0,10
	c-1.48,4.45-7.66,10.39-8,8c-1-7-3.4-9.9,0-12c1.19-0.73,2.6-0.47,5,0c3.98,0.78,5.93,2.22,8,3c2.42,0.91,6.21,1.37,12-1"/>
<path id="_x35_7_00000072998676309572921930000004637771859092024495_" class="st0" d="M712.5,819.5c2.45,1.06,5.6,2.65,9,5
	c4.7,3.25,7.63,6.41,10,9c3.52,3.85,5.64,6.2,7,10c0.09,0.26,1.13,3.22,1,7c-0.05,1.42-0.25,2.72-1,4c-0.35,0.6-0.92,1.53-2,2
	c-0.93,0.4-1.87,0.29-3,0c-2.21-0.57-5.94-1.54-8-5c-0.52-0.87-1.35-2.31-1-4c0.22-1.05,0.79-1.75,1-2c1.04-1.25,2.53-1.74,4-2
	c2.92-0.52,12.2-1.31,14,3c0.41,0.98,0.27,1.98,0,4c-0.09,0.68-0.47,3.14-2,6c-0.94,1.75-2.28,4.25-5,6c-2.71,1.74-4.87,1.51-7,4
	c-0.54,0.63-0.91,1.25-1,2c-0.2,1.7,1.16,3.12,2,4c8.09,8.5,3.3,4.45,9,10c1.47,1.43,2.45,2.34,3,4c0.74,2.21,0.21,4.23,0,5
	c-0.63,2.3-1.71,3.16-5,7c-4.93,5.75-5.65,7.48-6,9c-0.22,0.93-0.62,2.79,0,5c1.04,3.68,4.14,5.52,5,6"/>
<path id="_x35_6_00000106116309274928076010000009017974461767968952_" class="st0" d="M1482.5,595.5c-0.87-0.3-2.25-0.73-4-1
	c-2.83-0.44-4.01-0.07-5-1c-0.87-0.81-0.92-1.98-1-4c-0.02-0.52-0.09-2.94,1-6c0.31-0.85,0.87-1.9,2-4c1.82-3.38,2.35-3.84,3-4
	c0.98-0.24,1.87,0.31,3,1c1.32,0.81,2.59,1.96,4,4c1.47,2.13,2.19,3.94,3,6c0.78,1.98,1.59,4.09,2,7c0.4,2.83,0.13,4.37,0,5
	c-0.29,1.4-0.64,2.94-2,4c-1.27,0.98-2.91,1.22-3,1c-0.15-0.36,3.61-2.8,8-4c1.57-0.43,1.66-0.27,8-1c5.62-0.65,4.75-0.68,8-1
	c3.83-0.38,5.24-0.35,8-1c2.64-0.62,3.98-0.95,5-2c1.54-1.57,1.06-3,3-5c1.3-1.34,2.66-1.87,3-2c0.79-0.29,2.96-1.1,5,0
	c1.1,0.59,1.71,1.49,2,2"/>
<path id="_x35_5_00000032628968752707649240000012780133435396750738_" class="st0" d="M1657.5,345.5c-0.7-0.47-1.74-1.16-3-2
	c-5.67-3.76-5.55-3.56-6-4c-3.79-3.74-3.37-9.27-3-11c0.22-1.06,0.62-1.63,1-2c0.93-0.9,2.17-0.96,3-1c0.93-0.05,2.53-0.13,4,1
	c0.19,0.15,1.99,1.58,2,4c0,0.41-0.05,1.77-1,3c-1.27,1.64-3.27,1.9-4,2c-2.52,0.33-2.85-0.92-8-2c-1.48-0.31-2.18-0.36-3-1
	c-1.36-1.06-1.72-2.68-2-4c-0.49-2.31,0.03-2.76,0-7c-0.02-2.72-0.24-3.2,0-5c0.14-1.03,0.32-2.42,1-4c1.72-3.98,5.27-6.01,7-7
	c0.74-0.43,1.24-0.71,2-1c3.3-1.27,5.14-0.22,11,0c0,0,0,0,6,0c3.33,0,5,0,5,0c3.61-0.05,3.91-0.17,5,0c1.23,0.19,2.98,0.67,5,2"/>
<path id="_x35_4_00000019646875581536149700000001643260076928273557_" class="st0" d="M1357.5,177.5c-1.4-0.69-3.37-1.9-5-4
	c-1.96-2.52-2.41-5.03-3-15c-0.7-11.72-0.39-13.48,0-15c0.63-2.48,1.67-6.37,5-10c3.1-3.37,6.45-4.65,10-6c4.27-1.63,6.06-1.29,7-1
	c1.5,0.47,2.8,1.46,4,3c5.52,7.1,5.11,20.97,6,21c0.61,0.02-0.13-6.54,4-11c0.92-0.99,2.61-2,6-4c3.88-2.29,5.82-3.44,8-4
	c3.28-0.84,5.95-0.45,9,0c6.4,0.93,7.6,2.84,11,2c2.38-0.59,5.28-2.38,6-5c0.71-2.61-1.26-4.12-2-8c-0.73-3.85-0.37-8.61,1-9
	c1.62-0.46,2.48,5.75,7,9c10.04,7.22,29.88-6.15,43-15c2.14-1.44,3.24-2.61,4-4c1.01-1.85,0.83-3.04,2-6c0,0,0.83-2.09,2-4
	c0.79-1.28,3.17-4.38,15-7c3.66-0.81,8.76-1.7,15-2"/>
<path id="_x35_3_00000135686748445742169870000010530476950617119154_" class="st0" d="M275.5,598.5c-0.37-1.11-0.98-3.49,0-6
	c0.83-2.14,2.36-3.19,5-5c2.06-1.42,3.35-2.27,5-2c0.11,0.02,2.06,0.37,3,2c1.24,2.15-0.19,4.94,0,5c0.18,0.06,1.42-2.64,3-8
	c1.08-3.67,1.62-5.51,2-8c0.79-5.22-0.14-5.97,1-9c0.74-1.95,1.82-3.3,4-6c1.38-1.71,3.13-3.86,6-6c1.93-1.44,3.71-2.39,5-3"/>
<path id="_x35_2_00000121261215346645032380000002355615654958543495_" class="st0" d="M1105.5,672.5c-0.32-0.67-0.74-1.69-1-3
	c-0.29-1.5-0.2-2.67,0-5c0.24-2.86,0.58-3.51,1-4c0.14-0.16,1.08-1.24,2-1c0.6,0.16,0.9,0.79,1,1c0.57,1.19,0.14,2.51,0,3
	c-1.01,3.43-0.11,6.99,0,7c0.12,0.01,0.52-4.19,2-9c0.32-1.05,0.77-2.37,2-3c0.91-0.47,2.1-0.47,3,0c1.27,0.66,1.69,2.11,2,3
	c1.23,3.6,3.49,6.07,8,11c0.7,0.76,1.59,1.68,3,2c1.25,0.28,3,0.1,4-1c0.53-0.57,0.57-1.1,1-3c0.3-1.34,0.71-2.66,1-4
	c0.39-1.81,2.91-4.79,12-10"/>
<path id="_x35_1_00000157282489813544132100000018070450873813898157_" class="st0" d="M432.5,540.5c-0.36-0.69-1-2.11-1-4
	c0-2.07,0.75-3.55,1-4c0.53-0.96,1.32-2.42,3-3c1.3-0.45,2.47-0.15,3,0c1.44,0.39,2.31,1.27,4,3c1.69,1.73,2.54,2.6,3,4
	c0.21,0.63,0.74,2.3,0,4c-0.04,0.1-0.92,2.07-2,2c-0.77-0.05-1.34-1.11-2-3c-1.81-5.17-3.25-9.29-1-13c0.98-1.62,2.26-2.5,3-3
	c2.38-1.61,5.16-2.14,9-2c8.63,0.31,18.01,3.82,21,5"/>
<path id="_x35_0_00000153690040664381820920000013774736271976474813_" class="st0" d="M1799.5,130.5c-7.3,2.56-13.38,5.02-18,7
	c-7.83,3.35-11.38,5.29-15,8c-1.85,1.38-5.04,3.96-8,8c0,0-3.38,4.62-4,9c-0.2,1.41-0.05,2.62,0,3c0.16,1.14,0.31,2.23,1,3
	c0.75,0.82,1.86,0.98,4,1c5.28,0.05,8.2,0.07,11-2c0.52-0.39,1.3-0.97,2-2c1.35-1.98,1.77-4.65,1-7c-0.21-0.65-0.43-1.33-1-2
	c-2.33-2.76-5.91,0.02-12-2c-1.85-0.61-3.77-1.62-6-1c-1.1,0.3-1.86,0.89-2,1c-1.1,0.87-1.55,1.92-2,3c-0.96,2.32-1,4.35-1,5
	c0.01,2.18,0.57,3.79,1,5c0.28,0.77,0.89,2.32,2,4c4.15,6.28,12.9,8.3,14,13c0.26,1.1-2.63,0.92-2,1c0.49,0.07,1-1,0,0s0,0.23-2,2
	c-0.78,0.69-2.12,1.86-4,3c-2.5,1.51-2.65,0.96-4,2c-2.27,1.74-1.7,3.17-4,5c-0.51,0.41-0.21,0.07-4,2c-2.87,1.46-3.91,2.09-5,3
	c-0.63,0.52-1.29,1.08-2,2c-1.05,1.37-1.52,2.63-2,4c-0.51,1.44-0.91,2.57-1,4c-0.13,2.06,0.48,3.57,1,5c1.53,4.16,0.35,2.06,3,10
	c0.82,2.46,1.71,5,2,8c0.07,0.72,0.13,1.74,0,3c-0.12,1.19-0.26,2.52-1,4c-1.27,2.51-3.41,3.69-4,4c-1.18,0.62-2.27,0.88-3,1"/>
<path id="_x34_9_00000084511019228388991000000009428195560138626996_" class="st0" d="M1649.5,841.5c3.18,0.37,5.89,0.72,8,1
	c6.63,0.88,8.18,1.21,10,2c2.83,1.22,4.65,2.8,6,4c5.06,4.47,7.21,9.68,9,14c0.67,1.61,2.06,5.2,3,10c0.62,3.16,0.77,5.41,1,9
	c0.2,3.14,0.45,8.79,0,16c-0.38,6.14-0.72,4.65-1,10c-0.17,3.22-0.3,8.74-2,12c-0.26,0.49-0.94,1.69-2,3c-0.77,0.95-1.22,1.51-2,2
	c-1.03,0.65-1.59,0.55-3,1c-2.21,0.7-2.4,1.45-4,2c-1.29,0.45-2.27,0.34-5,0c-8.89-1.11-9.81-1.39-11-2c-2.32-1.19-3.61-2.57-4-3
	c0,0-1.21-1.35-2-3c-1.33-2.77-0.81-7.7,3-17c4.11-10.05,7.26-13.49,10-15c0.86-0.47,2.84-1.57,5-1c0.48,0.13,1.43,0.45,3,2
	c2.53,2.49,3.68,5.2,4,6c1.42,3.51,3.11,7.72,1,11c-1.44,2.23-4.54,3.89-6,3c-2.28-1.38-0.24-8.73,1-12c1.27-3.33,2.96-5.7,4-7
	c2.04-2.55,3.61-3.73,4-4c0.65-0.46,2.08-1.43,4-2c2.84-0.84,5.34-0.37,7,0c7.4,1.63,14.71,4.78,21,6c0.74,0.14,2.22,0.41,4,0
	c2.49-0.57,4.09-2.12,5-3c0,0,5.38-5.2,14-12c0.58-0.46,1.96-1.52,4-2c0.68-0.16,2.26-0.51,4,0c1.76,0.52,2.98,1.7,4,3
	c4.55,5.81,2.77,11.01,7,14c1.12,0.79,3.01,1.68,4,1c0.69-0.47,0.57-1.43,1-3c0.49-1.81,1.35-3.16,2-4"/>
<path id="_x34_8_00000052826645662788021740000014255530609328711560_" class="st0" d="M1684.5,449.5c-0.39-0.68-1.3-2.03-3-3
	c-2.11-1.21-4.14-1.07-5-1c-1.1,0.09-3.53,0.29-5,2c-1.1,1.28-1.32,3.01-1,6c0.6,5.52,3.04,6.78,4,13c0.45,2.95,0.16,4.38,0,5
	c-0.38,1.48-1.16,3.09-4,6c-4.35,4.46-5.57,3.82-8,7c-1.16,1.52-3.31,4.32-3,8c0.22,2.66,1.63,4.53,2,5c1.46,1.84,2.14,1.21,6,4
	c2.27,1.64,3.08,2.61,5,3c0.64,0.13,2.54,0.67,3,0c0.69-1.02-1.13-4.5-4-6c-3.77-1.97-9.23-0.47-12,3c-1.65,2.06-1.94,4.31-2,5
	c-0.27,2.87,0.89,5.01,2,7c2.51,4.49,5.77,6.38,12,10c0.92,0.53,2.35,1.32,4,1c1.27-0.25,2.13-1.05,3-2c4.11-4.48,5.78-9.33,6-10
	c0.91-2.74,1.36-4.14,1-6c-0.46-2.39-1.97-4-3-5c-8.94-8.64-26.65-14.02-30-15c-2.57-0.75-4.53-1.22-7-1c-2.22,0.2-3,0.78-6,1
	c-2.8,0.2-3.32-0.22-5,0c-3.15,0.41-5.32,2.41-7,4c-4.31,4.08-5.72,8.39-11,16c-0.66,0.95-2,2.83-4,3c-1.15,0.1-2.07-0.42-3-1
	c-4.44-2.77-7.01-4.37-9-8c-0.3-0.54-1.5-2.79-2-6c-0.34-2.16-0.92-5.89,1-9c0.92-1.49,1.92-2.04,5-4c2.15-1.37,5.25-3.39,9-6"/>
<path id="_x34_7_00000078764731219685177750000001112255544378628784_" class="st0" d="M1223.5,755.5c2.15,1.54,5.02,3.83,8,7
	c1.7,1.81,6.3,6.96,10,15c1.32,2.87,3.05,6.69,4,12c1.24,6.89,1.04,15.55,1,17c-0.12,4.6-0.48,6.66,1,9c1.65,2.61,3.83,2.79,7,5
	c2.23,1.55,4.15,4.37,8,10c2.14,3.13,4.43,7.42,9,16c0.98,1.84,2.14,4.07,2,7c-0.03,0.64-0.13,1.59-2,6c-1.9,4.49-2.95,6.94-5,10
	c-1.66,2.48-1.7,1.96-3,4c-2.6,4.09-3.51,7.88-4,10c-0.74,3.22-0.83,5.81-1,11c-0.1,3.06-0.2,6.08,0,9c0.4,5.83,0.89,12.53,5,18
	c1.52,2.02,2.36,2.31,14,10c3.84,2.54,6.96,4.63,9,6"/>
<path id="_x34_6_00000018233907236268184820000002902165699214662535_" class="st0" d="M314.5,1090.5c5.43-4.7,13.08-11.49,22-20
	c14.23-13.58,21.48-20.56,28-30c4.93-7.14,12.9-18.94,15-34c0.56-4.05,0.38-8.7,0-18c-0.11-2.76-0.35-7.44-3-12
	c-1.39-2.4-2.69-3.45-4-4c-0.64-0.27-2.42-0.9-6,0c-4.07,1.03-6.8,3.11-8,4c-8.74,6.44-14.25,6.46-21,13c-0.97,0.94-2.52,2.55-3,5
	c0,0-0.56,2.84,1,6c3.38,6.85,17.57,7.83,20,8c4.81,0.33,26.16,1.81,33-10c2.58-4.45,3-10,3-10c0.31-4.02-0.48-7.06-1-9
	c-0.41-1.52-2.45-8.65-9-15c-1.73-1.68-3.15-2.69-5-4c-8.59-6.08-13.15-6.3-27-13c-5.22-2.52-10.44-5.92-10-10
	c0.27-2.47,1.95-3.76,4-6c1.07-1.17,3.38-5.11,8-13c7.5-12.8,5.99-11.83,8-14c5.13-5.54,8.7-5.1,12-11c1.26-2.26,1.92-4.44,3-8
	c1.66-5.48,1.93-8.98,2-10c0,0,0.17-2.61,0-5c-0.12-1.68-1.09-10.65-17-25c-7.67-6.91-9-6.24-14-12c-6.21-7.16-8.35-13.04-9-15
	c-0.77-2.3-2.25-6.73-2-12c0.55-11.83,9.42-19.83,12-22"/>
<path id="_x34_5_00000060752076369444177100000015876136189754195636_" class="st0" d="M1774.5,729.5c-0.53,1.04-1.45,2.57-3,4
	c-1.83,1.7-3.67,2.47-5,3c-7,2.77-9.94,2.65-20,5c-1.04,0.24-3.36,0.79-6,0c-1.52-0.46-4.01-1.62-4-3c0.01-1.3,2.2-2.22,4-3
	c13.28-5.79,14.53-8.44,22-9c4.6-0.35,4.93-0.17,5,0c0.39,0.95-3,3.55-6,5c-9.59,4.65-22.11,1.03-28-4c-0.46-0.4-2.12-1.85-4-4
	c-3.1-3.53-4.8-5.19-5-7c-0.33-3.02,2.49-5.61,4-7c17.46-16.09,22.87-21.41,26-26c1.25-1.83,3.71-5.86,6-10c1.23-2.22,1.84-3.34,2-4
	c1.78-7.4-6.52-14.59-7-15c-2.29-1.94-4.32-2.75-5-3c-0.9-0.33-3.13-1.14-6-1c-3.22,0.16-5.86,1.46-9,3c-2.84,1.4-3.47,2.09-5,2
	c-2.26-0.13-3.73-1.81-5-3c-3.95-3.72-7.35-4.11-11-6c-3.95-2.05-10.38-6.99-21-20"/>
<path id="_x34_4_00000055677042983408358160000018132638029385227443_" class="st0" d="M980.5,172.5c-0.56-0.18-1.32-0.48-2.06-0.95
	c-0.74-0.48-1.46-1.14-1.94-2.05c-0.29-0.55-0.39-1.24-0.37-2.19c0.02-0.96,0.17-2.18,0.37-3.81c0.42-3.45,0.68-5.49,0.95-6.9
	c0.27-1.41,0.56-2.19,1.05-3.1c0.39-0.74,0.84-1.42,1.21-1.95c0.37-0.53,0.68-0.91,0.79-1.05c0.62-0.77,1.23-1.4,1.75-1.9
	s0.96-0.86,1.25-1.1c2.56-2.11,4.37-3.41,5.89-4.54s2.73-2.07,4.11-3.46c0.7-0.7,1.26-1.35,1.87-2.13c0.61-0.77,1.26-1.67,2.13-2.87
	c1.89-2.61,3.07-4.64,3.82-6.25c0.74-1.61,1.05-2.81,1.18-3.75c0.1-0.73,0.12-1.39,0.1-1.91s-0.07-0.91-0.1-1.09
	c-0.06-0.38-0.13-0.89-0.28-1.42c-0.15-0.53-0.37-1.09-0.72-1.58c-0.49-0.69-1.14-1.09-1.84-1.37c-0.7-0.28-1.45-0.44-2.16-0.63
	c-2.01-0.54-3.72-1.36-5.19-2.26c-1.48-0.9-2.72-1.88-3.81-2.74c-0.41-0.32-0.57-0.47-1.17-1.08c-0.6-0.62-1.65-1.71-3.83-3.92
	c-1.41-1.43-2.47-2.5-3.28-3.31c-0.8-0.8-1.34-1.34-1.72-1.69c-4.21-3.95-8.88-6.01-12.79-7.06c-3.91-1.05-7.05-1.07-8.21-0.94
	c-0.87,0.1-1.62,0.35-2.15,0.57c-0.53,0.23-0.85,0.43-0.85,0.43c-0.12,0.08-0.4,0.26-0.77,0.59s-0.8,0.79-1.23,1.41
	c-1.2,1.76-1.82,4.11-1.96,6.6c-0.14,2.49,0.21,5.11,0.96,7.4c0.15,0.45,0.28,0.81,0.44,1.13c0.16,0.32,0.33,0.6,0.56,0.87
	c0.84,1.02,2.04,1.62,3.3,1.92s2.6,0.29,3.7,0.08c1.97-0.38,3.48-1.46,4.62-2.66s1.9-2.51,2.38-3.34c0.68-1.17,1.12-2.28,1.41-3.29
	c0.3-1.01,0.46-1.93,0.59-2.71c0.15-0.9,0.6-3.54,0.41-6.39s-1.02-5.9-3.41-7.61c-0.33-0.24-0.79-0.56-1.31-0.79
	s-1.1-0.36-1.69-0.21c-0.46,0.12-2.46,0.12-4.09,1.71c-1.64,1.6-2.91,4.79-1.91,11.29c0.12,0.79,0.49,1.49,0.89,2.02
	s0.84,0.89,1.11,0.98c1.5,0.5,2.42,0.55,3.39,0.08c0.96-0.47,1.96-1.47,3.61-3.08c2.37-2.3,3.38-3.82,4.3-5.25
	c0.92-1.43,1.73-2.78,3.7-4.75c0,0,0.98-0.97,2.34-2.46s3.11-3.49,4.66-5.54c3.76-4.99,6.14-11.47,7.65-17.22
	c1.5-5.75,2.12-10.75,2.35-12.78"/>
<path id="_x34_3_00000160884595661456582500000000925442096440761023_" class="st0" d="M1832.5,349.5c-0.76,0.4-2.71,1.57-4,4
	c-0.33,0.63-1.49,2.98-1,6c0.25,1.54,1.9,3.37,5,7c2.05,2.4,2.56,2.82,3,4c0.96,2.54,0.28,4.95,0,6c-2.79,10.41-0.29,10.89-4,24
	c-0.61,2.16-1.68,5.67-1,10c0.43,2.74,1.29,4.14,2,5c1.87,2.27,5.21,3.8,6,3c1.54-1.56-4.67-13.96-13-15c-1.26-0.16-3.51,0.23-8,1
	c-3.06,0.53-5.11,1.03-9,2c-7.79,1.94-8.53,2.54-9,3c-3.36,3.31-2.52,9.03-3,9c-0.39-0.03-0.78-3.76,0-4c0.79-0.24,1.68,3.48,5,7
	c0.81,0.86,6.03,6.39,11,5c2.02-0.57,3.93-2.27,5-4c1.04-1.7,0.87-2.76,2-4c1.38-1.52,3.44-1.91,5-2"/>
<path id="_x34_2_00000147937457434523608420000010807903230266634139_" class="st0" d="M1166.5,188.5c-0.58,1.35-1.37,3.41-2,6
	c-0.59,2.42-0.3,2.3-1,6c-0.71,3.77-1.28,5.33-1,8c0.14,1.37,0.43,2.25,1,3c0.78,1.02,1.69,1.29,3,2c3.42,1.86,3.8,2.56,4,3
	c0.49,1.08,0.19,2.14,0,3c-0.14,0.63-0.1,4.75,0,13c0.04,3.89,0.11,4.34,0,6c-0.23,3.49-1.01,4.07-1,7c0.01,1.57,0.01,3.65,1,6
	c0.67,1.59,1.21,1.94,2,4c0.65,1.7,1.07,2.78,1,4c-0.11,2-1.41,2.6-4,6c-2.09,2.74-3.4,4.45-4,7c-0.54,2.28-0.26,4.18,0,6
	c0.38,2.6,0.63,4.37,2,6c1.19,1.42,2.61,2.01,5,3c1.71,0.71,3.63,1.51,4,1c0.51-0.7-1.93-3.91-5-6c-0.96-0.65-7.98-5.29-14-2
	c-2.36,1.29-3.54,3.23-4,4c-2.45,4.12-1.52,8.52-1,11c1.14,5.43,4.18,9.15,6,11c0.78,0.79,7.71,7.62,18,7c3.48-0.21,6.25-1.21,8-2"
	/>
<path id="_x34_1_00000067229111872408471630000005307000457783871641_" class="st0" d="M667.5,905.5c2.63,5.45,6.43,13.36,11,23
	c4.04,8.53,6.08,12.84,7,15c6.81,15.98,5.82,18.52,11,28c0.81,1.48,2.54,4.54,4,9c1.9,5.82,1.99,9.87,2,11c0.02,2.32,0.03,4.97-1,8
	c-1.55,4.53-4.48,7.08-9,11c-2.56,2.23-6.55,5.29-12,8c-4.99,2.48-8.84,4.34-14,4c-2.11-0.14-3.63-0.08-5-1
	c-2.54-1.71-3.43-5.25-3-8c0.5-3.18,2.73-5.07,5-7c4.77-4.05,10.95-5.98,11-6c0.84-0.53,2.33-1.28,4-1c1.96,0.13,3.3,2.04,4,3
	c6.7,9.23,11.09,10.18,16,21c0.62,1.36,1.82,2.79,2,5c0.29,3.61-1.8,6.57-3,8c-6,4-12,8-18,12"/>
<path id="_x33_9_00000026161786250470005350000018233544289127396791_" class="st0" d="M166.5,52.5c0.91,4.2,1.05,7.62,1,10
	c-0.1,5.29-1.16,7.63,0,12c0.4,1.51,1.04,3.82,3,6c2.47,2.75,5.5,3.6,7,4c4.95,1.31,8.88-0.19,11-1c2.69-1.03,3.58-2.06,4-3
	c0.11-0.26,0.81-1.84,0-3c-0.69-0.99-2.1-1.15-3-1c-1.32,0.21-2.61,1.25-4,4c-3,5.95-1.04,9.25-3,17c-0.52,2.05-0.68,3.36-1,6
	c-0.3,2.43-0.26,3.19,0,4c0.13,0.4,1.14,3.45,4,4c2.79,0.54,4.83-1.8,5-2c2.06-2.44,1.12-5.61,1-6c-0.78-2.51-2.87-3.76-5-5
	c-1.88-1.09-5.57-2.85-11-3"/>
<path id="_x33_7_00000109711164847865732740000013686474250729920167_" class="st0" d="M641.5,104.5c2.43,3.44,4.51,6.13,6,8
	c2.18,2.73,3.59,4.33,4,7c0.08,0.55,0.6,3.96-1,5c-2.39,1.55-7.9-3.15-8-3c-0.1,0.15,6.06,4.18,12,9c2.85,2.31,4.9,4.21,9,8
	c3.81,3.53,5.75,5.33,7,7c1.81,2.42,3.83,5.96,5,11"/>
<path id="_x33_5_00000141440274478213311170000011428546917028103562_" class="st0" d="M674.5,300.5c0.53-0.14,1.66-0.36,3,0
	c0.55,0.15,2.01,0.63,3,2c0.67,0.91,0.84,1.83,1,3c0.59,4.38,0.89,6.57,0,8c-1.5,2.42-4.43,2.92-5,3c-2.38,0.35-4.16-0.57-5-1
	c-0.83-0.43-3.11-1.6-3-3c0.08-1.09,1.55-1.79,2-2c4.21-2.01,12.1,0.55,15,6c1.52,2.86,1.25,5.71,1,8c-0.66,6.1-1.83,14.57-4,25"/>
<path id="_x33_4_00000062883802616665961750000006150856273231690174_" class="st0" d="M575.5,756.5c0.82-0.62,2.17-1.48,4-2
	c5.4-1.53,10,1.37,11,2c0.66,0.42,2.57,1.69,4,4c1.09,1.75,1.03,2.69,1,3c-0.15,1.41-1.22,2.37-2,3c-2.84,2.31-5.6,3.44-9,5
	c-5.36,2.45-6.25,3.18-7,4c-1.51,1.64-2.32,3.47-3,5c-0.99,2.24-1.04,3.31-1,4c0.03,0.56,0.13,1.81,1,3c1,1.37,2.41,1.82,3,2
	c1.46,0.45,2.26,0.13,5,0c0,0,1.26-0.06,4,0c3.45,0.08,9.84,6.03,16,15"/>
<path id="_x33_3_00000029756145977813622540000016091998206327063945_" class="st0" d="M1206.5,537.5c0.15,0.92,0.28,2.33,0,4
	c-0.1,0.59-0.5,2.7-2,5c-1.5,2.31-2.43,2.23-3,4c-0.53,1.65-0.19,3.15,0,4c0.12,0.52,0.58,2.45,2,4c2.63,2.86,7.04,2.73,7,3
	c-0.04,0.27-4.46-0.63-9,1c-1.32,0.48-2.29,1.04-3,2c-1.02,1.38-1.01,2.93-1,4c0.02,3.25,1.67,5.56,2,6c1.88,2.54,4.43,3.46,6,4
	c7.38,2.55,14.98-0.99,17-2"/>
<path id="_x33_2_00000088130852992395990110000004627524071993346729_" class="st0" d="M793.5,452.5c-0.87-0.52-2.13-1.45-3-3
	c-0.78-1.38-0.85-2.52-1-5c-0.49-8.02-0.54-8.71,0-10c0.4-0.97,1.22-2.48,3-4c0.65-0.78,1.57-2.12,2-4c0.2-0.87,0.51-2.31,0-4
	c-0.21-0.69-0.68-2.25-2-3c-1.12-0.64-2.19-0.31-4,0c-5.33,0.91-5.89-0.22-9,1c-2.2,0.86-4.21,2.33-4,3c0.18,0.56,1.74,0.05,4,1
	c1.18,0.5,1.96,1.14,3,2c1.68,1.39,2.35,2.37,3,3c3.09,3.02,9.55,2.11,13,1c3.05-0.99,3.18-1.95,7-3c0.69-0.19,2.94-0.78,6-1
	c4.3-0.31,6.28,0.4,9-1c1.48-0.76,1.87-1.48,2-2c0.28-1.17-0.53-2.33-1-3c-0.79-1.13-1.38-1.28-2-2c-0.59-0.68-1.05-1.72-1-5
	c0.03-2.08,0.25-3.77,1-8c0.72-4.05,0.85-4.4,1-6c0.22-2.42,0.36-3.98,0-6c-0.47-2.63-1.5-4.4-3-7c-1.27-2.2-1.91-3.3-3-4
	c-1.88-1.21-3.99-1.1-6-1c-2.15,0.11-3.87,0.6-5,1"/>
<path id="_x33_0_00000119105742931856798810000008795405764158507950_" class="st0" d="M1502.5,316.5c-0.71,0.26-1.74,0.62-3,1
	c-1.83,0.56-2.75,0.83-4,1c-1.03,0.14-2.34,0.3-4,0c-1.13-0.2-1.89-0.53-3-1c-1.75-0.74-2.63-1.13-3-2c-0.26-0.6-0.46-1.58,0-2
	c0.56-0.52,1.66,0.24,4,1c1.3,0.42,3.57,1.14,6,1c2.15-0.12,4.03-0.73,4-1c-0.04-0.35-3.31-0.01-8-1c-1.35-0.29-2.93-0.71-4-2
	c-0.74-0.9-0.98-1.9-1-2c-0.06-0.28-0.21-1.06,0-2c0.31-1.42,1.24-2.29,2-3c1.12-1.04,2.2-1.6,3-2c4.84-2.42,6.06-2.21,8-4
	c1.46-1.35,1.86-2.47,2-3c0.35-1.29,0.13-2.4,0-3c-0.39-1.84-1.31-2.99-2-4c-0.91-1.31-2.05-3.27-3-6"/>
<path id="_x32_7_00000090284780698890840560000016292603518385477534_" class="st0" d="M1785.5,1026.5c-1.89,0.72-5.67,1.87-10,1
	c-2.67-0.54-4.4-1.61-5-2c-1.3-0.86-2.39-1.58-3-3c-0.82-1.92-0.41-4.34,1-6c0.33-0.39,1.71-2,4-2c1.94,0,3.31,1.32,4,2
	c5.2,5.1,5.04,16.45,5,18c0,0-0.06,2.3-2,15c-1.14,1.6-2.78,2.41-4,2c-1.17-0.39-1.61-1.78-2-3c-0.2-0.62-0.87-2.76,0-5
	c0.51-1.31,1.48-2.46,4-4c3.64-2.23,8.1-4.96,14-4c1.31,0.21,4.22,0.72,7,3c3.27,2.68,4.27,6.37,5,9c0.75,2.69,0.89,5.11,1,7
	c0.16,2.79-0.39,3.21,0,5c0.48,2.25,1.3,2.25,3,6c0.96,2.11,0.8,2.33,2,5c0.72,1.6,1.32,2.73,2,4c3.31,6.2,4.5,6.79,5,7
	c1.29,0.53,2.33,0.25,4,0c2.53-0.38,6.21-0.64,11,0"/>
<path id="_x32_5_00000019670520446972440460000003516539255665992832_" class="st0" d="M148.5,914.5c0.58-0.79,1.55-1.95,3-3
	c1.34-0.98,2.96-1.77,11-3c4.96-0.76,6.03-0.72,7,0c0.99,0.73,1.37,1.77,2,5c1.36,6.95,2.02,10.52,1,15c-0.46,2.02-0.81,3.48-2,5
	c-1.86,2.38-4.44,3.19-7,4c-3.11,0.98-5.32,1.68-8,1c-3.97-1-7.58-4.65-7-7c0.28-1.13,1.47-1.72,2-2c8.74-4.6,19.74-20.51,22-24
	c0.48-0.74,1.33-2.1,3-3c1.71-0.92,3.65-1.03,9,0c6.99,1.34,7.19,2.19,10,2c3.88-0.27,6.7-2.12,8-3c1.05-0.71,5.1-3.61,7-9
	c0.21-0.6,0.48-2.41,1-6c1.17-8.04,1.55-11.31,0-14c-0.72-1.25-1.5-1.76-2-2c-1.63-0.78-3.39-0.2-4,0c-5.85,1.88-12.03,2.54-18,4
	c-9.35,2.28-12.95,1.54-15,1c-1.88-0.49-3.18-1.12-5-2c0,0-7.21-3.5-13-9c-11.06-10.52-11.55-24.43-18-46c-0.48-1.6-1.65-5.46,0-9
	c0.47-1.01,1.09-1.81,2-3c1.09-1.42,2.72-3.25,5-5c0.83-0.63,1.8-1.38,3-2c4.67-2.41,7.48-0.08,16-1c2.31-0.25,3-0.52,4,0
	c0.56,0.29,2.65,1.56,3,10c0.21,5.15,0.42,10.04-2,16c-1.66,4.08-3.71,9.13-8,10c-2.91,0.59-5.46-1.03-7-2
	c-3.68-2.33-7.34-7.06-6-10c0.5-1.09,1.81-2.21,3-2c3.6,0.63,7.43,13.56,2,21c-2.94,4.03-7.67,5.19-11,6c-7.69,1.88-17.18,0.16-18,0
	c-0.62-0.12-2.14-0.43-4,0c-2.33,0.53-3.96,1.94-5,3c-5.13,5.24-7.24,13.79-13,21c-0.71,0.89-1.95,2.35-4,3
	c-3.43,1.08-6.77-0.86-7-1c-5.38-3.23-4.34-10.41-9-12c-0.43-0.15-1.76-0.6-3,0c-1.49,0.73-1.89,2.52-2,3c-0.68,3.06,1.67,5.65,2,6"
	/>
<path id="_x32_1_00000137825157375185243320000005888115320118559617_" class="st0" d="M1095.5,997.5c-0.05,2.23-0.27,5.35-1,9
	c-1.24,6.19-2.28,5.54-7,18c0,0-1.61,4.25-5,8c-0.65,0.72-1.59,1.64-3,2c-1.19,0.31-1.83-0.01-3,0c-2.01,0.02-3.48,0.99-5,2
	c-1.51,1-4.19,2.77-5,6c-0.37,1.46-0.2,2.62,0,4c0.12,0.8,0.63,3.9,3,7c0.63,0.83,1.59,1.91,3,3c7.26,5.59,29.23,13.34,35,16
	c0.51,0.23,1.74,0.82,3,2c0.65,0.61,2.46,2.35,3,5c0.1,0.47,0.51,2.69-1,6c-2.51,5.51-7.71,8.29-11,10c-2.76,1.43-7.52,3.45-14,4"/>
<path id="_x31_8_00000012450700908259001140000011846387617788144275_" class="st0" d="M1535.5,1034.5c-1.48,0.15-3.55,0.25-6,0
	c-1.64-0.17-3.17-0.33-5-1c-1.57-0.57-5.93-2.17-7-6c-0.22-0.77-0.57-2.02,0-3c1.75-3.05,11.52,1.16,12,0c0.29-0.7-3.45-3.09-8-4
	c-20-4-11.01-2.16-20-6c-1.07-0.46-2.38-1.03-4-2c-6.76-4.08-10.25-10.13-12-14"/>
<path id="_x31_7_00000068644815091477048820000007509744277065957778_" class="st0" d="M1540.5,823.5c-2.07,0.67-3.81,0.91-5,1
	c-2.67,0.2-4.75,0.36-6-1c-0.98-1.07-1.01-2.58-1-3c0.02-0.74,0.34-1.49,1-3c0.65-1.49,1.23-2.48,1.41-2.76
	c0.77-1.29,1.16-1.93,1.59-2.24c1.62-1.14,3.94-0.36,5,0c1.15,0.39,2.36,0.8,3,2c0.51,0.96,0.68,2.45,0,3c-0.69,0.56-1.74-0.28-4-1
	c-4.46-1.43-6.32-0.06-9-2c-1-0.72-1.68-1.58-2-2c0,0-1.34-1.73-2-4c-1.27-4.38,1.83-12.56,2-13c1.5-3.98,3.05-9.87,3-18"/>
<path id="_x31_5_00000058572373062305451310000003833246406274341055_" class="st0" d="M813.5,1146.5c0.91,0.15,2.32,0.28,4,0
	c2.43-0.4,4.1-1.44,5-2c9.95-6.18,12.11-7.07,12-9c-0.05-0.93-0.7-1.62-2-3c-1.02-1.08-3.88-3.75-8-4c-2.58-0.16-5.04,0.67-5,1
	c0.07,0.62,8.92,1.06,18-1c6.99-1.58,6.39-2.9,13-4c3.51-0.58,6.65-0.71,10-3c1.95-1.33,3.11-2.81,4-4c4.65-6.21,8.79-13.77,11-18"
	/>
<path id="_x31_4_00000030470915676706898440000006827484852201567114_" class="st0" d="M1365.5,625.5c-0.27-0.93-0.81-2.22-2-3
	c-1.78-1.16-3.96-0.53-6,0c-10.13,2.62-11.13,1.13-17,4c-2.48,1.21-4.18,2.4-5,3c-2.31,1.69-4.43,3.25-6,6c-1.15,2.01-1.43,3.67-2,7
	c-0.62,3.63-0.94,5.65,0,8c0.84,2.1,2.26,3.41,3,4c3.78,3.01,8.63,2.22,10,2c5.22-0.85,8.92-4.13,9-4c0.09,0.15-5.77,2.67-8,8
	c-0.98,2.34-1,4.61-1,5c0,2.16,0.55,3.75,1,5c0.25,0.7,0.89,2.38,4,7c1.87,2.78,2.58,3.57,4,6c2.02,3.46,2.06,4.39,2,5
	c-0.24,2.31-2.33,3.81-4,5c-3.91,2.8-7.84,1.91-8,3c-0.15,1.02,3.23,1.17,6,4c3.29,3.35,3.7,8.38,4,12c0.17,2.01,0.08,3.48,0,5
	c-0.17,3.01-0.5,8.16-3,14c-1.53,3.56-2.22,5.37-4,7c-1.47,1.34-2.52,1.6-3,3c-0.6,1.75,0.52,2.89,1,6c0.3,1.97,0.09,3.05,0,5
	c-0.12,2.51-0.02,6.16,1,11"/>
<path id="_x31_0_00000099652697231502121540000007450374179164903599_" class="st0" d="M1329.5,1061.5c0.26,1.3,0.65,3.4,1,6
	c1.06,7.91,0.42,10.55,2,15c0.39,1.1,1.52,4.18,4,7c3.38,3.85,7.59,5.28,14,7c8.69,2.33,14.45,3.29,28,6c20.72,4.14,12.52,2.93,13,3
	c5.4,0.8,9.58,0.87,12,4c0.38,0.49,0.92,1.66,2,4c1.35,2.92,1.67,4.13,3,7c0.98,2.13,1.77,3.55,2,4c1.43,2.74,2.63,8.21,2,20"/>
<path id="_x39__00000040539661819348323520000005314974692884738949_" class="st0" d="M418,302c2.04,1.22,4.94,3.15,8,6
	c3.44,3.2,5.67,6.51,10,13c1.03,1.55,3.69,6.36,9,16c0.94,1.71,1.91,3.51,2,6c0.11,2.89-1.01,5.6-2,8c-1.28,3.1-1.89,3.33-2,5
	c-0.15,2.37,0.93,4.2,2,6c2.22,3.75,5.25,5.57,6,6c1.11,0.64,3.16,1.79,6,2c2.47,0.18,4.51-0.42,6-1c8.41-3.29,20-14,20-14
	c5.74-5.3,12.06-9.93,18-15c0.47-0.4,2.7-2.3,6-3c2.28-0.48,3.67-0.1,4,0c1.58,0.47,2.72,1.46,4,3c3.44,4.13,4.84,8.5,5,9
	c1.68,5.41,1.27,10.01,1,12c-0.73,5.34-2.83,9-4,11c-2.42,4.12-6.17,8.49-7,8c-1.16-0.7,3.91-10.82,5-13c0,0,3.97-7.93,12-15
	c0.44-0.39,1.09-0.92,2-1c2.54-0.21,3.84,4.62,3,11c-0.5,3.81-1.52,10.97-6,18c-2.27,3.56-4.85,6.17-7,8"/>
<path id="_x37__00000069392928097253395170000014232865673347235752_" class="st0" d="M809.5,593.5c3.07-0.33,7.59-0.91,13-2
	c9.64-1.94,15.44-3.11,22-7c0,0,7.03-4.17,13-13c1.05-1.55,2.7-4.31,2-7c-0.28-1.07-0.84-1.8-1-2c-0.99-1.23-2.52-1.99-4-2
	c-1.27-0.01-1.71,0.55-3,1c-4.17,1.47-6.89-1.77-10,0c-1.13,0.64-1.78,1.65-2,2c-0.99,1.57-1,3.15-1,4c0.01,2.15,0.83,3.69,1,4
	c0.64,1.15,1.77,2.49,5,4c3.62,1.7,8.75,4.1,14,2c0.95-0.38,3.52-1.41,5-4c0.42-0.74,1.11-2.22,1-6c-0.09-2.93-0.18-6.32-2-10
	c-2.48-5.02-6.37-6.94-8-12c-0.23-0.73-0.56-1.94,0-3c0.83-1.58,3.1-1.87,4-2c6.08-0.89,14.12-3.8,19-7c4.03-2.64,5.6-5.29,6-6
	c1.55-2.75,1.83-5.36,2-7c0.29-2.85-0.18-3.53-1-10c-1.06-8.38-0.15-6.23-1-12c-0.35-2.39-0.62-3.55,0-5c0.74-1.72,2.07-2.31,5-5
	c1.34-1.23,2.36-2.3,3-3"/>
<path id="_x34__00000090291619732612806920000010750776422307340166_" class="st0" d="M1031.5,970.5c-0.02,0.37-0.17,2.58-2,4
	c-1.11,0.86-2.67,1.31-4,1c-2.44-0.56-2.79-3.33-6-10c-3.01-6.24-4.37-7.29-4-10c0.32-2.33,1.4-2.01,3-6c0.58-1.45,1.06-4.3,2-10
	c0.43-2.59,0.65-4.14,0-6c-0.23-0.67-0.73-2.04-2-3c-1.64-1.24-3.69-1.14-5-1c-6.44,0.69-10.82,3.97-19,6c-3.77,0.94-5.28,0.84-6,0
	c-1.08-1.26-0.47-4.34,1-5c2.69-1.21,5.6,6.84,14,11c10.53,5.21,22.36,0.66,24,0c4.68-1.88,3.13-2.65,10-6c4.51-2.2,8.96-3.72,19-8
	c3.91-1.67,6.95-3.02,7-5c0.04-1.47-1.58-2.82-3-4c-2.17-1.81-3.4-1.82-5-3c-2.05-1.51-2.76-3.52-4-7c-1.65-4.63-1.83-8.65-2-13
	c-0.15-3.8,0.15-3.45,0-6c-0.26-4.56-0.71-12.32-6-17c-2.97-2.62-6.33-3.28-10-4c-5.08-0.99-9.36-0.51-12,0"/>
<path id="_x32__00000140698511000291070130000014724126389499581313_" class="st0" d="M1631.5,55.5c-0.1,2.11-0.03,5.32,1,9
	c1.4,5.02,3.94,8.6,5,10c4.2,5.53,8.08,6.66,8,10c-0.04,1.45-0.85,2.48-2,4c-2.67,3.53-6.12,5.15-8,6c-12.11,5.51-15.42,6.41-20,10
	c-3.39,2.66-4.46,4.42-5,6c-0.75,2.16-0.54,4.07,1,10c2.47,9.53,3.59,10.99,4,16c0.44,5.3-0.48,7.81-1,9c-0.47,1.07-1.79,3.94-5,6
	c-3.4,2.17-6.81,2.09-8,2"/>
</svg>
